<?xml version="1.0" encoding="UTF-8" standalone="no"?>
<!-- Created with Inkscape (http://www.inkscape.org/) -->

<svg
   version="1.1"
   id="svg9145"
   width="200"
   height="200"
   viewBox="0 0 200 200"
   xmlns="http://www.w3.org/2000/svg"
   xmlns:svg="http://www.w3.org/2000/svg">
  <defs
     id="defs9149" />
  <g
     id="g9151">
    <path
       style="fill:#0c4b33;fill-opacity:1;stroke-width:0.634406"
       d="m 88.727365,199.45595 c -6.88302,-0.66757 -18.952568,-3.7017 -26.305454,-6.61286 C 35.200264,182.0655 13.791007,159.09149 4.4814586,130.6679 0.89878782,119.72941 -0.01991778,113.42211 3.255244e-4,99.902972 0.02064502,86.344589 1.0547717,79.252009 4.5323001,68.820868 16.248847,33.676129 45.930095,7.702571 81.807332,1.1987854 c 8.686988,-1.57476785 27.369838,-1.60323265 35.848518,-0.054618 11.56512,2.1123466 27.92822,8.5904612 36.78961,14.5649212 21.69466,14.626815 36.51031,35.513057 42.59318,60.045389 13.30744,53.669292 -19.50088,108.161882 -73.00435,121.255682 -11.7334,2.87149 -22.92464,3.64674 -35.306925,2.44579 z m 33.891405,-29.58797 c 12.03584,-6.95069 17.41623,-15.65586 19.13154,-30.95381 0.35207,-3.13992 0.64247,-19.33909 0.64534,-35.99815 l 0.005,-30.28918 h -10.70763 -10.70763 l -0.34968,30.60635 c -0.37867,33.14434 -0.65915,36.20571 -3.99864,43.64525 -2.0778,4.62881 -7.49971,9.90579 -13.06217,12.713 -2.09731,1.05846 -3.622264,2.11987 -3.38877,2.35868 0.33514,0.34278 18.45526,9.35123 19.26,9.57514 0.11234,0.0313 1.53993,-0.71452 3.17243,-1.65728 z M 99.572966,140.85011 c 3.489684,-0.5502 6.844534,-1.15873 7.455234,-1.35231 1.04504,-0.33125 1.11035,-3.27806 1.11035,-50.104 V 39.641752 H 97.352266 86.565985 V 55.733402 71.82506 L 79.362436,71.507247 C 60.30826,70.666603 46.890415,79.071558 41.785231,95.045668 c -1.354123,4.237044 -1.659423,6.438552 -1.68522,12.152072 -0.08918,19.74835 9.0536,30.67029 28.700332,34.28537 5.97585,1.09958 21.855276,0.77294 30.772623,-0.633 z M 72.454408,123.73918 c -7.090693,-2.53007 -10.252689,-7.76769 -10.177693,-16.8586 0.07242,-8.778028 3.896785,-15.124803 10.262712,-17.031605 2.817817,-0.844026 9.674427,-1.069202 12.281717,-0.403338 l 1.744841,0.445608 v 16.990235 c 0,14.90771 -0.123016,17.03743 -1.003629,17.37527 -1.816044,0.69671 -10.686431,0.34646 -13.107948,-0.51757 z M 142.40085,50.742503 V 39.641752 h -10.78628 -10.78628 v 11.100751 11.100749 h 10.78628 10.78628 z"
       id="path10244" />
  </g>
</svg>
