<?xml version="1.0" encoding="UTF-8" standalone="no"?>
<!-- Created with Inkscape (http://www.inkscape.org/) -->

<svg
   width="210mm"
   height="210mm"
   viewBox="0 0 210 210"
   version="1.1"
   id="svg5"
   xml:space="preserve"
   xmlns="http://www.w3.org/2000/svg"
   xmlns:svg="http://www.w3.org/2000/svg"><defs
     id="defs2" /><g
     id="layer1"><path
       d="m 206.58395,90.917286 c -5.14898,-3.465837 -18.67633,-4.943644 -28.51072,-2.296031 -0.5289,-9.797065 -5.58143,-18.054088 -14.82469,-25.253334 l -3.41917,-2.296031 -2.28049,3.444063 c -4.48007,6.800999 -6.36856,15.866934 -5.70276,24.108399 0.52889,5.077425 2.29293,10.783307 5.70276,14.924278 -12.80244,7.42634 -24.59997,5.74009 -76.855103,5.74009 H 0.01816305 c -0.2364481,11.80064 1.66136235,34.49659 16.09405695,52.9738 1.592915,2.04091 3.34139,4.01651 5.2392,5.91742 11.735314,11.75087 29.465842,20.3688 55.979188,20.39058 40.445142,0.0373 75.100402,-21.82792 96.181662,-74.68973 6.9379,0.11513 25.2471,1.24137 34.20726,-16.072271 C 207.93731,97.516069 210,93.216436 210,93.216436 l -3.41605,-2.296032 z M 52.668404,78.740192 H 29.981792 V 101.4268 h 22.686612 z m 29.310285,0 H 59.292076 V 101.4268 h 22.686613 z m 29.310281,0 H 88.602363 V 101.4268 h 22.686607 z m 29.31028,0 H 117.91264 V 101.4268 h 22.68661 z m -117.234906,0 H 0.67150785 V 101.4268 H 23.358122 V 78.740192 Z M 52.674628,50.083249 H 29.988013 v 22.686619 h 22.686615 z m 29.310283,0 H 59.298297 v 22.686619 h 22.686614 z m 29.310289,0 H 88.608578 V 72.769868 H 111.2952 Z m -0.009,-28.653815 H 88.599182 V 44.116047 H 111.2858 Z"
       fill="#1d63ed"
       stroke-width="0"
       id="path1143" /></g></svg>
