<?xml version="1.0" encoding="UTF-8" standalone="no"?>
<!-- Created with Inkscape (http://www.inkscape.org/) -->

<svg
   width="20mm"
   height="20mm"
   viewBox="0 0 20 20"
   version="1.1"
   id="svg5"
   xml:space="preserve"
   inkscape:version="1.2.2 (b0a84865, 2022-12-01)"
   sodipodi:docname="laravel.svg"
   xmlns:inkscape="http://www.inkscape.org/namespaces/inkscape"
   xmlns:sodipodi="http://sodipodi.sourceforge.net/DTD/sodipodi-0.dtd"
   xmlns="http://www.w3.org/2000/svg"
   xmlns:svg="http://www.w3.org/2000/svg"><sodipodi:namedview
     id="namedview7"
     pagecolor="#ffffff"
     bordercolor="#cccccc"
     borderopacity="1"
     inkscape:showpageshadow="0"
     inkscape:pageopacity="1"
     inkscape:pagecheckerboard="0"
     inkscape:deskcolor="#d1d1d1"
     inkscape:document-units="mm"
     showgrid="false"
     inkscape:zoom="3.4625348"
     inkscape:cx="32.490648"
     inkscape:cy="32.779454"
     inkscape:window-width="1440"
     inkscape:window-height="847"
     inkscape:window-x="10"
     inkscape:window-y="26"
     inkscape:window-maximized="0"
     inkscape:current-layer="g3782" /><defs
     id="defs2"><style
       id="style3358">.cls-1{fill:#999;}.cls-2{fill:#009639;}.cls-3{fill:#fff;}</style><clipPath
       id="a"><path
         d="m 33.56,17.49 a 1.21,1.21 0 0 0 -1.38,-1 1.1,1.1 0 0 0 -0.65,0.33 l -6.24,6.23 -4.88,-9.32 a 1.2,1.2 0 0 0 -1.62,-0.51 1.39,1.39 0 0 0 -0.51,0.51 L 15.62,18.83 8.91,6.31 A 1.19,1.19 0 0 0 7.29,5.84 1.23,1.23 0 0 0 6.66,6.7 L 0.16,48.22 17.51,58 A 3.63,3.63 0 0 0 21,58 l 17.5,-9.74 z"
         style="fill:none"
         id="path3708" /></clipPath><linearGradient
       id="b"
       x1="7.6300001"
       y1="-231.98"
       x2="5.2399998"
       y2="-233.23"
       gradientTransform="translate(0,265.99)"
       gradientUnits="userSpaceOnUse"><stop
         offset="0"
         stop-color="#a52714"
         id="stop3711" /><stop
         offset="0.4"
         stop-color="#a52714"
         stop-opacity="0.5"
         id="stop3713" /><stop
         offset="0.8"
         stop-color="#a52714"
         stop-opacity="0"
         id="stop3715" /></linearGradient><linearGradient
       id="c"
       x1="17.809999"
       y1="-235.47"
       x2="16.74"
       y2="-236.53999"
       gradientTransform="translate(0,265.99)"
       gradientUnits="userSpaceOnUse"><stop
         offset="0"
         stop-color="#a52714"
         stop-opacity="0.8"
         id="stop3718" /><stop
         offset="0.5"
         stop-color="#a52714"
         stop-opacity="0.21"
         id="stop3720" /><stop
         offset="1"
         stop-color="#a52714"
         stop-opacity="0"
         id="stop3722" /></linearGradient><linearGradient
       id="d"
       x1="-620.53998"
       y1="-1271.77"
       x2="-605.54999"
       y2="-1286.77"
       gradientTransform="matrix(2.67,0,0,-2.67,1655.98,-3380.66)"
       gradientUnits="userSpaceOnUse"><stop
         offset="0"
         stop-color="#fff"
         stop-opacity="0.1"
         id="stop3725" /><stop
         offset="1"
         stop-color="#fff"
         stop-opacity="0"
         id="stop3727" /></linearGradient></defs><g
     inkscape:label="Layer 1"
     inkscape:groupmode="layer"
     id="layer1"><g
       id="g3416"
       transform="matrix(0.26458333,0,0,0.26458333,6.466804,162.61727)"><g
         id="g3782"
         transform="translate(216.40619,-91.574805)"><path
           d="m -166.37977,-505.9411 a 1.1963429,1.1963429 0 0 1 0.0414,0.30907 v 16.22531 a 1.1830338,1.1830338 0 0 1 -0.59447,1.02628 l -13.6182,7.84056 v 15.54062 c 0,0.42294 -0.22478,0.81334 -0.59152,1.02629 l -28.42682,16.36431 c -0.0651,0.037 -0.13605,0.0606 -0.20703,0.0858 -0.0266,0.009 -0.0518,0.0251 -0.0799,0.0325 a 1.1904278,1.1904278 0 0 1 -0.6063,0 c -0.0325,-0.009 -0.0621,-0.0266 -0.0932,-0.0384 -0.0651,-0.0237 -0.13309,-0.0444 -0.1952,-0.0799 l -28.42091,-16.36431 a 1.1845126,1.1845126 0 0 1 -0.59447,-1.02629 v -48.67592 c 0,-0.10647 0.0148,-0.20999 0.0414,-0.31055 0.009,-0.034 0.0296,-0.0651 0.0414,-0.0991 0.0222,-0.0621 0.0429,-0.12569 0.0754,-0.18337 0.0222,-0.0385 0.0547,-0.0695 0.0813,-0.10499 0.034,-0.0473 0.0651,-0.0961 0.105,-0.13753 0.034,-0.034 0.0784,-0.0592 0.11682,-0.0887 0.0429,-0.0355 0.0813,-0.0739 0.13014,-0.10203 h 10e-4 l 14.21119,-8.18216 a 1.1859914,1.1859914 0 0 1 1.18303,0 l 14.2112,8.18216 h 0.003 c 0.0473,0.0296 0.0872,0.0665 0.13014,0.10055 0.0385,0.0296 0.0813,0.0562 0.11534,0.0887 0.0414,0.0429 0.071,0.0917 0.10648,0.13901 0.0251,0.0355 0.0591,0.0665 0.0798,0.10499 0.034,0.0591 0.0532,0.12126 0.0769,0.18337 0.0118,0.034 0.0325,0.0651 0.0414,0.10056 a 1.1963429,1.1963429 0 0 1 0.0414,0.30907 v 30.40249 l 11.84217,-6.81871 v -15.54211 c 0,-0.10351 0.0148,-0.20851 0.0414,-0.30759 0.0103,-0.0355 0.0296,-0.0665 0.0414,-0.10056 0.0237,-0.0621 0.0444,-0.12569 0.0769,-0.18337 0.0222,-0.0384 0.0547,-0.0695 0.0798,-0.10499 0.0355,-0.0473 0.0651,-0.0961 0.10648,-0.13753 0.034,-0.034 0.0769,-0.0591 0.11534,-0.0887 0.0444,-0.0355 0.0828,-0.0739 0.13014,-0.10203 h 0.001 l 14.21268,-8.18216 a 1.1845126,1.1845126 0 0 1 1.18303,0 l 14.21119,8.18216 c 0.0503,0.0296 0.0887,0.0665 0.1331,0.10056 0.037,0.0296 0.0799,0.0562 0.11386,0.0887 0.0414,0.0429 0.071,0.0917 0.10648,0.13901 0.0266,0.0355 0.0591,0.0665 0.0798,0.10499 0.034,0.0577 0.0532,0.12126 0.0769,0.18337 0.0133,0.034 0.0325,0.0651 0.0414,0.10056 z m -2.32762,15.8497 v -13.4925 l -4.97317,2.86294 -6.87047,3.95577 v 13.4925 l 11.84512,-6.81871 z m -14.21119,24.40746 v -13.50137 l -6.75808,3.85965 -19.29824,11.01404 v 13.62855 z m -54.4787,-45.94311 v 45.94311 l 26.05336,14.99939 v -13.62559 l -13.61081,-7.70303 -0.004,-0.003 -0.006,-0.003 c -0.0458,-0.0266 -0.0843,-0.0651 -0.12717,-0.0976 -0.037,-0.0296 -0.0799,-0.0532 -0.11239,-0.0858 l -0.003,-0.004 c -0.0385,-0.037 -0.0651,-0.0828 -0.0976,-0.12422 -0.0296,-0.0399 -0.0651,-0.0739 -0.0887,-0.11534 l -0.001,-0.004 c -0.0266,-0.0444 -0.0429,-0.0976 -0.0621,-0.14788 -0.0192,-0.0444 -0.0444,-0.0858 -0.0562,-0.13309 v -10e-4 c -0.0148,-0.0562 -0.0177,-0.11535 -0.0237,-0.17302 -0.006,-0.0444 -0.0178,-0.0887 -0.0178,-0.13309 v -0.003 -31.76593 l -6.86899,-3.95725 -4.97317,-2.85999 z m 13.02815,-8.86389 -11.84068,6.81576 11.83773,6.81575 11.83921,-6.81723 -11.83921,-6.81428 z m 6.1577,42.53598 6.86899,-3.95429 v -29.7178 l -4.97318,2.86294 -6.87047,3.95577 v 29.71781 z m 36.47736,-34.49282 -11.83921,6.81575 11.83921,6.81575 11.83774,-6.81723 z m -1.18451,15.68259 -6.87047,-3.95577 -4.97318,-2.86294 v 13.4925 l 6.86899,3.95429 4.97466,2.86442 z m -27.24231,30.40544 17.36546,-9.91382 8.68051,-4.95395 -11.83034,-6.81132 -13.62115,7.84204 -12.41447,7.147 z"
           fill="#ff2d20"
           fill-rule="evenodd"
           id="path4610"
           style="stroke-width:1.47879" /></g></g></g></svg>
