<svg xmlns="http://www.w3.org/2000/svg" id="svg9145" width="200" height="200" version="1.1"><g id="g9151"><path id="path10244" d="M88.727 199.456c-6.883-.668-18.952-3.702-26.305-6.613-27.222-10.778-48.631-33.752-57.94-62.175C.898 119.729-.02 113.422 0 99.903c.02-13.558 1.055-20.651 4.532-31.082C16.25 33.676 45.93 7.703 81.807 1.199c8.687-1.575 27.37-1.603 35.849-.055 11.565 2.113 27.928 8.59 36.79 14.565 21.694 14.627 36.51 35.513 42.593 60.045 13.307 53.67-19.501 108.162-73.005 121.256-11.733 2.872-22.924 3.647-35.307 2.446m33.892-29.588c12.036-6.95 17.416-15.656 19.131-30.954.352-3.14.643-19.339.646-35.998l.005-30.29h-21.416l-.35 30.607c-.378 33.145-.658 36.206-3.998 43.645-2.078 4.63-7.5 9.906-13.062 12.713-2.097 1.059-3.622 2.12-3.389 2.36.335.342 18.455 9.35 19.26 9.574.112.032 1.54-.714 3.173-1.657zM99.573 140.85c3.49-.55 6.845-1.159 7.455-1.352 1.045-.331 1.11-3.278 1.11-50.104V39.642H86.567v32.183l-7.204-.318c-19.054-.84-32.472 7.565-37.577 23.539-1.354 4.237-1.66 6.438-1.685 12.152-.09 19.748 9.054 30.67 28.7 34.285 5.976 1.1 21.856.773 30.773-.633m-27.119-17.11c-7.09-2.53-10.252-7.769-10.177-16.86.072-8.777 3.897-15.124 10.262-17.031 2.818-.844 9.675-1.07 12.282-.403l1.745.445v16.99c0 14.908-.123 17.038-1.004 17.376-1.816.696-10.686.346-13.108-.518m69.947-72.997V39.642h-21.573v22.201h21.573z" style="fill:#0c4b33;fill-opacity:1;stroke-width:.634406px"/></g></svg>