<svg xmlns="http://www.w3.org/2000/svg" xml:space="preserve" id="svg5" width="210mm" height="210mm" version="1.1" viewBox="0 0 210 210"><g id="layer1"><path id="path1143" fill="#1d63ed" stroke-width="0" d="M206.584 90.917c-5.149-3.466-18.676-4.943-28.51-2.296-.53-9.797-5.582-18.054-14.825-25.253l-3.42-2.296-2.28 3.444c-4.48 6.801-6.369 15.867-5.703 24.108.529 5.078 2.293 10.784 5.703 14.925-12.803 7.426-24.6 5.74-76.855 5.74H.018c-.236 11.8 1.662 34.496 16.094 52.974a65 65 0 0 0 5.24 5.917c11.735 11.75 29.465 20.369 55.979 20.39 40.445.038 75.1-21.827 96.181-74.69 6.938.116 25.247 1.242 34.208-16.071.217-.293 2.28-4.593 2.28-4.593l-3.416-2.296zM52.668 78.74H29.982v22.687h22.686zm29.31 0H59.293v22.687H81.98zm29.311 0H88.602v22.687h22.687zm29.31 0h-22.686v22.687h22.686zm-117.235 0H.672v22.687h22.686V78.74Zm29.31-28.657H29.989V72.77h22.687zm29.31 0H59.299V72.77h22.687zm29.311 0H88.61V72.77h22.686Zm-.009-28.654H88.6v22.687h22.687Z"/></g></svg>