<svg xmlns="http://www.w3.org/2000/svg" xml:space="preserve" id="svg5" width="20mm" height="20mm" version="1.1" viewBox="0 0 20 20"><defs id="defs2"><linearGradient id="b" x1="7.63" x2="5.24" y1="-231.98" y2="-233.23" gradientTransform="translate(0 265.99)" gradientUnits="userSpaceOnUse"><stop id="stop3711" offset="0" stop-color="#a52714"/><stop id="stop3713" offset=".4" stop-color="#a52714" stop-opacity=".5"/><stop id="stop3715" offset=".8" stop-color="#a52714" stop-opacity="0"/></linearGradient><linearGradient id="c" x1="17.81" x2="16.74" y1="-235.47" y2="-236.54" gradientTransform="translate(0 265.99)" gradientUnits="userSpaceOnUse"><stop id="stop3718" offset="0" stop-color="#a52714" stop-opacity=".8"/><stop id="stop3720" offset=".5" stop-color="#a52714" stop-opacity=".21"/><stop id="stop3722" offset="1" stop-color="#a52714" stop-opacity="0"/></linearGradient><linearGradient id="d" x1="-620.54" x2="-605.55" y1="-1271.77" y2="-1286.77" gradientTransform="matrix(2.67 0 0 -2.67 1655.98 -3380.66)" gradientUnits="userSpaceOnUse"><stop id="stop3725" offset="0" stop-color="#fff" stop-opacity=".1"/><stop id="stop3727" offset="1" stop-color="#fff" stop-opacity="0"/></linearGradient><clipPath id="a"><path id="path3708" d="M33.56 17.49a1.21 1.21 0 0 0-1.38-1 1.1 1.1 0 0 0-.65.33l-6.24 6.23-4.88-9.32a1.2 1.2 0 0 0-1.62-.51 1.4 1.4 0 0 0-.51.51l-2.66 5.1L8.91 6.31a1.19 1.19 0 0 0-1.62-.47 1.23 1.23 0 0 0-.63.86L.16 48.22 17.51 58A3.63 3.63 0 0 0 21 58l17.5-9.74z" style="fill:none"/></clipPath><style id="style3358">.cls-1{fill:#999}.cls-2{fill:#009639}.cls-3{fill:#fff}</style></defs><g id="layer1"><g id="g3416" transform="matrix(.26458 0 0 .26458 6.467 162.617)"><g id="g3782" transform="translate(216.406 -91.575)"><g id="g3750" clip-path="url('#a')" transform="translate(-230.75 -531.196)scale(1.43284)"><path id="path3734" d="M.16 48.22 6.66 6.7A1.18 1.18 0 0 1 8 5.72a1.26 1.26 0 0 1 .87.62l6.71 12.53 2.66-5.1a1.2 1.2 0 0 1 1.62-.51 1.4 1.4 0 0 1 .51.51l18.1 34.45z" style="fill:#ffa000"/><path id="path3736" d="M22.33 6-9.43 3.29v57.52L.16 48.22Z" style="opacity:.12;isolation:isolate;fill:url(#b)"/><path id="path3738" d="m22.6 32.05-7-13.21L.16 48.22Z" style="fill:#f57c00"/><path id="path3740" d="M-9.43 3.29h57.52v57.52H-9.43Z" style="opacity:.2;isolation:isolate;fill:url(#c)"/><path id="path3742" d="m38.51 48.22-5-30.76a1.21 1.21 0 0 0-1.38-1 1.13 1.13 0 0 0-.65.33L.16 48.22 17.51 58A3.63 3.63 0 0 0 21 58Z" style="fill:#ffca28"/><path id="path3744" d="M33.56 17.49a1.21 1.21 0 0 0-1.38-1 1.1 1.1 0 0 0-.65.33l-6.24 6.23-4.88-9.32a1.2 1.2 0 0 0-1.62-.51 1.4 1.4 0 0 0-.51.51l-2.66 5.1L8.91 6.31a1.19 1.19 0 0 0-1.62-.47 1.23 1.23 0 0 0-.63.86L.16 48.22l.18.09 25-25 6.24-6.23a1.18 1.18 0 0 1 1.7 0 1.07 1.07 0 0 1 .33.66l4.92 30.46h.06zM.22 48.16 6.66 7A1.17 1.17 0 0 1 8 6a1.23 1.23 0 0 1 .87.62l6.71 12.53 2.66-5.1a1.19 1.19 0 0 1 1.62-.51 1.4 1.4 0 0 1 .51.51l4.79 9.11z" style="fill:#fff;fill-opacity:.2"/><path id="path3746" d="M21 57.66a3.63 3.63 0 0 1-3.5 0L.19 48v.27L17.51 58A3.63 3.63 0 0 0 21 58l17.5-9.74v-.27z" style="opacity:.2;isolation:isolate;fill:#a52714"/><path id="path3748" d="M33.56 17.49a1.21 1.21 0 0 0-1.38-1 1.1 1.1 0 0 0-.65.33l-6.24 6.23-4.88-9.32a1.2 1.2 0 0 0-1.62-.51 1.4 1.4 0 0 0-.51.51l-2.66 5.1L8.91 6.31a1.19 1.19 0 0 0-1.62-.47 1.23 1.23 0 0 0-.63.86L.16 48.22 17.51 58A3.63 3.63 0 0 0 21 58l17.5-9.74z" style="fill:url(#d)"/></g></g></g></g></svg>