<svg xmlns="http://www.w3.org/2000/svg" width="26" height="26" fill="none" color="#00877e" viewBox="0 0 24 24"><path fill="#00877e" fill-rule="evenodd" d="M11.584 3.09a1 1 0 0 1 .832 0l10 4.572a1 1 0 0 1 0 1.819L20 10.585v5.862c0 .201-.05.421-.178.626C19.492 17.604 17.172 21 12 21s-7.491-3.396-7.822-3.927A1.2 1.2 0 0 1 4 16.447v-5.862L1.584 9.481a1 1 0 0 1 0-1.819zM6 11.5v4.7c.49.679 2.314 2.8 6 2.8s5.51-2.121 6-2.8v-4.7l-5.584 2.552a1 1 0 0 1-.832 0zM4.405 8.57l1.01.462L12 12.043l6.584-3.01 1.01-.462L12 5.1zM23.5 11.5a1.5 1.5 0 1 1-3 0 1.5 1.5 0 0 1 3 0m-.5 3a1 1 0 1 0-2 0V20a1 1 0 1 0 2 0z" clip-rule="evenodd"/></svg>