<svg xmlns="http://www.w3.org/2000/svg" xml:space="preserve" id="svg5" width="20mm" height="20mm" version="1.1" viewBox="0 0 20 20"><defs id="defs2"><linearGradient id="b" x1="7.63" x2="5.24" y1="-231.98" y2="-233.23" gradientTransform="translate(0 265.99)" gradientUnits="userSpaceOnUse"><stop id="stop3711" offset="0" stop-color="#a52714"/><stop id="stop3713" offset=".4" stop-color="#a52714" stop-opacity=".5"/><stop id="stop3715" offset=".8" stop-color="#a52714" stop-opacity="0"/></linearGradient><linearGradient id="c" x1="17.81" x2="16.74" y1="-235.47" y2="-236.54" gradientTransform="translate(0 265.99)" gradientUnits="userSpaceOnUse"><stop id="stop3718" offset="0" stop-color="#a52714" stop-opacity=".8"/><stop id="stop3720" offset=".5" stop-color="#a52714" stop-opacity=".21"/><stop id="stop3722" offset="1" stop-color="#a52714" stop-opacity="0"/></linearGradient><linearGradient id="d" x1="-620.54" x2="-605.55" y1="-1271.77" y2="-1286.77" gradientTransform="matrix(2.67 0 0 -2.67 1655.98 -3380.66)" gradientUnits="userSpaceOnUse"><stop id="stop3725" offset="0" stop-color="#fff" stop-opacity=".1"/><stop id="stop3727" offset="1" stop-color="#fff" stop-opacity="0"/></linearGradient><clipPath id="a"><path id="path3708" d="M33.56 17.49a1.21 1.21 0 0 0-1.38-1 1.1 1.1 0 0 0-.65.33l-6.24 6.23-4.88-9.32a1.2 1.2 0 0 0-1.62-.51 1.4 1.4 0 0 0-.51.51l-2.66 5.1L8.91 6.31a1.19 1.19 0 0 0-1.62-.47 1.23 1.23 0 0 0-.63.86L.16 48.22 17.51 58A3.63 3.63 0 0 0 21 58l17.5-9.74z" style="fill:none"/></clipPath><style id="style3358">.cls-1{fill:#999}.cls-2{fill:#009639}.cls-3{fill:#fff}</style></defs><g id="layer1"><g id="g3416" transform="matrix(.26458 0 0 .26458 6.467 162.617)"><g id="g3782" transform="translate(216.406 -91.575)"><path id="path4610" fill="#ff2d20" fill-rule="evenodd" d="M-166.38-505.941a1.2 1.2 0 0 1 .042.309v16.225a1.18 1.18 0 0 1-.595 1.027l-13.618 7.84V-465c0 .424-.225.814-.592 1.027l-28.426 16.364c-.065.037-.136.06-.207.086-.027.01-.052.025-.08.033a1.2 1.2 0 0 1-.607 0c-.032-.01-.062-.027-.093-.039-.065-.023-.133-.044-.195-.08l-28.42-16.364a1.19 1.19 0 0 1-.595-1.026v-48.676q0-.16.041-.31c.009-.035.03-.066.041-.1.023-.062.043-.126.076-.183.022-.039.055-.07.081-.105.034-.047.065-.096.105-.138.034-.034.079-.059.117-.088.043-.036.081-.074.13-.102h.001l14.211-8.183a1.19 1.19 0 0 1 1.183 0l14.211 8.183h.003c.048.03.088.066.13.1.04.03.082.056.116.089.041.043.071.091.106.139.026.035.06.066.08.105.034.059.053.121.077.183.012.034.033.065.042.1a1.2 1.2 0 0 1 .04.31v30.402l11.843-6.818v-15.543c0-.103.015-.208.042-.307.01-.036.03-.067.04-.1.025-.063.045-.126.078-.184.022-.038.055-.07.08-.105.035-.047.065-.096.106-.138.034-.034.077-.059.115-.088.045-.036.083-.074.13-.102h.002l14.212-8.182a1.19 1.19 0 0 1 1.183 0l14.211 8.182c.05.03.09.066.134.1.037.03.08.056.113.089.042.043.071.092.107.139.027.035.059.066.08.105.034.058.053.121.077.183.013.034.032.065.041.1zm-2.327 15.85v-13.493l-4.974 2.863-6.87 3.956v13.492l11.845-6.818zm-14.212 24.407v-13.501l-6.758 3.86-19.298 11.013v13.629zm-54.478-45.943v45.943l26.053 15v-13.626l-13.61-7.703-.005-.003-.006-.003c-.046-.027-.084-.065-.127-.098-.037-.03-.08-.053-.112-.086l-.003-.004c-.039-.037-.065-.082-.098-.124-.03-.04-.065-.074-.089-.115v-.004c-.027-.045-.043-.098-.063-.148-.019-.044-.044-.086-.056-.133v-.001c-.015-.056-.018-.115-.024-.173-.006-.045-.017-.089-.017-.133v-31.769l-6.87-3.957-4.973-2.86zm13.028-8.864-11.84 6.816 11.837 6.816 11.84-6.818-11.84-6.814zm6.158 42.536 6.869-3.954v-29.718l-4.974 2.863-6.87 3.956v29.717zm36.477-34.493-11.84 6.816 11.84 6.816 11.838-6.818zm-1.185 15.683-6.87-3.956-4.973-2.863v13.493l6.869 3.954 4.974 2.864zm-27.242 30.405 17.366-9.914 8.68-4.954-11.83-6.81-13.621 7.841-12.415 7.147z" style="stroke-width:1.47879px"/></g></g></g></svg>