<svg xmlns="http://www.w3.org/2000/svg" xml:space="preserve" id="svg5" width="210mm" height="210mm" version="1.1" viewBox="0 0 210 210"><defs id="defs2"><style id="style3358">.cls-1{fill:#999}</style></defs><g id="layer1"><g id="g3416" transform="matrix(.26458 0 0 .26458 6.467 162.617)"><path id="path3380" d="M28.721-19.328A40.1 40.1 0 0 0 43.784-4.381l308.142 177.906.01-.01a40.43 40.43 0 0 0 40.956 0L701.044-4.39a40.41 40.41 0 0 0 20.469-35.454v-355.812l-.01-.01a40.42 40.42 0 0 0-20.478-35.464L392.873-609.037v-.01a40.38 40.38 0 0 0-40.928 0v.01L43.803-431.131a40.4 40.4 0 0 0-20.488 35.464l-.01.01v355.813a40.2 40.2 0 0 0 5.406 20.516" style="fill:#009639;stroke-width:13.281px"/><path id="path3382" d="M273.75-82.302a39.629 39.629 0 0 1-79.257 0l.01.01.038-272.034a41.314 41.314 0 0 1 44.996-38.504 70.47 70.47 0 0 1 54.018 24.153l11.975 14.331L471.086-156.22V-353.22h-.018a39.629 39.629 0 1 1 79.257 0h-.01l-.04 272.015a41.32 41.32 0 0 1-44.996 38.503 70.43 70.43 0 0 1-54.018-24.152l-177.53-212.457v197.019z" style="fill:#fff;stroke-width:13.281px"/></g></g></svg>