<?xml version="1.0" encoding="UTF-8" standalone="no"?>
<!-- Created with Inkscape (http://www.inkscape.org/) -->

<svg
   width="178.59067mm"
   height="142.14214mm"
   viewBox="0 0 178.59067 142.14214"
   version="1.1"
   id="svg5"
   xml:space="preserve"
   inkscape:version="1.2.2 (b0a84865, 2022-12-01)"
   sodipodi:docname="docker-2.svg"
   inkscape:dataloss="true"
   xmlns:inkscape="http://www.inkscape.org/namespaces/inkscape"
   xmlns:sodipodi="http://sodipodi.sourceforge.net/DTD/sodipodi-0.dtd"
   xmlns="http://www.w3.org/2000/svg"
   xmlns:svg="http://www.w3.org/2000/svg"><sodipodi:namedview
     id="namedview7"
     pagecolor="#ffffff"
     bordercolor="#cccccc"
     borderopacity="1"
     inkscape:showpageshadow="0"
     inkscape:pageopacity="1"
     inkscape:pagecheckerboard="0"
     inkscape:deskcolor="#d1d1d1"
     inkscape:document-units="mm"
     showgrid="false"
     inkscape:zoom="0.2102413"
     inkscape:cx="66.590151"
     inkscape:cy="563.63806"
     inkscape:window-width="1440"
     inkscape:window-height="847"
     inkscape:window-x="0"
     inkscape:window-y="25"
     inkscape:window-maximized="1"
     inkscape:current-layer="layer1" /><defs
     id="defs2" /><g
     inkscape:label="Layer 1"
     inkscape:groupmode="layer"
     id="layer1"
     transform="translate(-20.892273,-78.687406)"><path
       d="m 196.57782,137.78208 c -4.37886,-2.94746 -15.88294,-4.20423 -24.24642,-1.95262 -0.44979,-8.33173 -4.74662,-15.35377 -12.60739,-21.47623 l -2.90777,-1.95262 -1.9394,2.92894 c -3.81,5.78378 -5.41602,13.49374 -4.84981,20.50255 0.44979,4.318 1.94998,9.17046 4.84981,12.69207 -10.8876,6.3156 -20.9206,4.88156 -65.360017,4.88156 H 20.907719 c -0.201083,10.03564 1.412875,29.33699 13.686896,45.0506 1.354666,1.73566 2.841625,3.41577 4.455583,5.03237 9.980083,9.99331 25.058688,17.32227 47.606479,17.34079 34.395833,0.0317 63.867763,-18.56316 81.795933,-63.51851 5.90021,0.0979 21.47094,1.05569 29.09094,-13.66838 0.18521,-0.24871 1.93939,-3.90525 1.93939,-3.90525 l -2.90512,-1.95262 z M 65.683156,127.42629 H 46.38974 v 19.29342 h 19.293416 z m 24.926396,0 H 71.316136 v 19.29342 h 19.293416 z m 24.926388,0 H 96.242531 v 19.29342 h 19.293409 z m 24.9264,0 h -19.29342 v 19.29342 h 19.29342 z m -99.700288,0 H 21.463344 v 19.29342 H 40.756761 V 127.42629 Z M 65.688448,103.05552 H 46.395031 v 19.29342 h 19.293417 z m 24.926396,0 H 71.321427 v 19.29342 h 19.293417 z m 24.926396,0 H 96.247823 v 19.29342 h 19.293417 z m -0.008,-24.368115 H 96.239886 V 97.980822 H 115.5333 Z"
       fill="#1d63ed"
       stroke-width="0"
       id="path1143"
       sodipodi:nodetypes="cccccccsccccccccccccccccccccccccccccccccccccccccccccccccccccccc"
       inkscape:export-filename="path1143.svg"
       inkscape:export-xdpi="96"
       inkscape:export-ydpi="96" /></g></svg>
