<?xml version="1.0" encoding="UTF-8" standalone="no"?>
<!-- Created with Inkscape (http://www.inkscape.org/) -->

<svg
   width="20mm"
   height="20mm"
   viewBox="0 0 20 20"
   version="1.1"
   id="svg5"
   xml:space="preserve"
   xmlns="http://www.w3.org/2000/svg"
   xmlns:svg="http://www.w3.org/2000/svg"><defs
     id="defs2"><style
       id="style3358">.cls-1{fill:#999;}.cls-2{fill:#009639;}.cls-3{fill:#fff;}</style><clipPath
       id="a"><path
         d="m 33.56,17.49 a 1.21,1.21 0 0 0 -1.38,-1 1.1,1.1 0 0 0 -0.65,0.33 l -6.24,6.23 -4.88,-9.32 a 1.2,1.2 0 0 0 -1.62,-0.51 1.39,1.39 0 0 0 -0.51,0.51 L 15.62,18.83 8.91,6.31 A 1.19,1.19 0 0 0 7.29,5.84 1.23,1.23 0 0 0 6.66,6.7 L 0.16,48.22 17.51,58 A 3.63,3.63 0 0 0 21,58 l 17.5,-9.74 z"
         style="fill:none"
         id="path3708" /></clipPath><linearGradient
       id="b"
       x1="7.6300001"
       y1="-231.98"
       x2="5.2399998"
       y2="-233.23"
       gradientTransform="translate(0,265.99)"
       gradientUnits="userSpaceOnUse"><stop
         offset="0"
         stop-color="#a52714"
         id="stop3711" /><stop
         offset="0.4"
         stop-color="#a52714"
         stop-opacity="0.5"
         id="stop3713" /><stop
         offset="0.8"
         stop-color="#a52714"
         stop-opacity="0"
         id="stop3715" /></linearGradient><linearGradient
       id="c"
       x1="17.809999"
       y1="-235.47"
       x2="16.74"
       y2="-236.53999"
       gradientTransform="translate(0,265.99)"
       gradientUnits="userSpaceOnUse"><stop
         offset="0"
         stop-color="#a52714"
         stop-opacity="0.8"
         id="stop3718" /><stop
         offset="0.5"
         stop-color="#a52714"
         stop-opacity="0.21"
         id="stop3720" /><stop
         offset="1"
         stop-color="#a52714"
         stop-opacity="0"
         id="stop3722" /></linearGradient><linearGradient
       id="d"
       x1="-620.53998"
       y1="-1271.77"
       x2="-605.54999"
       y2="-1286.77"
       gradientTransform="matrix(2.67,0,0,-2.67,1655.98,-3380.66)"
       gradientUnits="userSpaceOnUse"><stop
         offset="0"
         stop-color="#fff"
         stop-opacity="0.1"
         id="stop3725" /><stop
         offset="1"
         stop-color="#fff"
         stop-opacity="0"
         id="stop3727" /></linearGradient></defs><g
     id="layer1"><g
       id="g3416"
       transform="matrix(0.26458333,0,0,0.26458333,6.466804,162.61727)"><g
         id="g3782"
         transform="translate(216.40619,-91.574805)"><g
           clip-path="url(#a)"
           id="g3750"
           transform="matrix(1.432842,0,0,1.432842,-230.74921,-531.19633)"><path
             d="M 0.16,48.22 6.66,6.7 A 1.18,1.18 0 0 1 8,5.72 1.26,1.26 0 0 1 8.87,6.34 l 6.71,12.53 2.66,-5.1 a 1.2,1.2 0 0 1 1.62,-0.51 1.39,1.39 0 0 1 0.51,0.51 l 18.1,34.45 z"
             style="fill:#ffa000"
             id="path3734" /><path
             d="M 22.33,6 -9.43,3.29 V 60.81 L 0.16,48.22 Z"
             style="opacity:0.12;isolation:isolate;fill:url(#b)"
             id="path3736" /><path
             d="M 22.6,32.05 15.6,18.84 0.16,48.22 Z"
             style="fill:#f57c00"
             id="path3738" /><path
             d="M -9.43,3.29 H 48.09 V 60.81 H -9.43 Z"
             style="opacity:0.2;isolation:isolate;fill:url(#c)"
             id="path3740" /><path
             d="m 38.51,48.22 -5,-30.76 a 1.21,1.21 0 0 0 -1.38,-1 1.13,1.13 0 0 0 -0.65,0.33 L 0.16,48.22 17.51,58 A 3.63,3.63 0 0 0 21,58 Z"
             style="fill:#ffca28"
             id="path3742" /><path
             d="m 33.56,17.49 a 1.21,1.21 0 0 0 -1.38,-1 1.1,1.1 0 0 0 -0.65,0.33 l -6.24,6.23 -4.88,-9.32 a 1.2,1.2 0 0 0 -1.62,-0.51 1.39,1.39 0 0 0 -0.51,0.51 L 15.62,18.83 8.91,6.31 A 1.19,1.19 0 0 0 7.29,5.84 1.23,1.23 0 0 0 6.66,6.7 l -6.5,41.52 v 0 0 l 0.18,0.09 25,-25 6.24,-6.23 a 1.18,1.18 0 0 1 1.7,0 1.07,1.07 0 0 1 0.33,0.66 l 4.92,30.46 h 0.06 z M 0.22,48.16 6.66,7 A 1.17,1.17 0 0 1 8,6 1.23,1.23 0 0 1 8.87,6.62 l 6.71,12.53 2.66,-5.1 a 1.19,1.19 0 0 1 1.62,-0.51 1.39,1.39 0 0 1 0.51,0.51 l 4.79,9.11 z"
             style="fill:#ffffff;fill-opacity:0.2"
             id="path3744" /><path
             d="m 21,57.66 a 3.63,3.63 0 0 1 -3.5,0 L 0.19,48 v 0.27 L 17.51,58 A 3.63,3.63 0 0 0 21,58 l 17.5,-9.74 v -0.27 z"
             style="opacity:0.2;isolation:isolate;fill:#a52714"
             id="path3746" /><path
             d="m 33.56,17.49 a 1.21,1.21 0 0 0 -1.38,-1 1.1,1.1 0 0 0 -0.65,0.33 l -6.24,6.23 -4.88,-9.32 a 1.2,1.2 0 0 0 -1.62,-0.51 1.39,1.39 0 0 0 -0.51,0.51 L 15.62,18.83 8.91,6.31 A 1.19,1.19 0 0 0 7.29,5.84 1.23,1.23 0 0 0 6.66,6.7 L 0.16,48.22 17.51,58 A 3.63,3.63 0 0 0 21,58 l 17.5,-9.74 z"
             style="fill:url(#d)"
             id="path3748" /></g></g></g></g></svg>
