<?xml version="1.0" encoding="UTF-8" standalone="no"?>
<!-- Created with Inkscape (http://www.inkscape.org/) -->

<svg
   width="210mm"
   height="210mm"
   viewBox="0 0 210 210"
   version="1.1"
   id="svg5"
   xml:space="preserve"
   xmlns="http://www.w3.org/2000/svg"
   xmlns:svg="http://www.w3.org/2000/svg"><defs
     id="defs2"><style
       id="style3358">.cls-1{fill:#999;}.cls-2{fill:#009639;}.cls-3{fill:#fff;}</style></defs><g
     id="layer1"><g
       id="g3416"
       transform="matrix(0.26458333,0,0,0.26458333,6.466804,162.61727)"><path
         class="cls-2"
         d="m 28.721045,-19.328402 a 40.093723,40.093723 0 0 0 15.06277,14.9473602 L 351.92636,173.52517 l 0.01,-0.01 a 40.433318,40.433318 0 0 0 40.95606,0 L 701.04434,-4.3906038 A 40.409279,40.409279 0 0 0 721.51275,-39.84488 v -355.81253 l -0.01,-0.01 a 40.422029,40.422029 0 0 0 -20.47807,-35.46381 l -308.1521,-177.90607 v -0.01 a 40.380593,40.380593 0 0 0 -40.92737,0 v 0.01 L 43.803074,-431.13081 a 40.404897,40.404897 0 0 0 -20.487658,35.46384 l -0.0096,0.01 v 355.812537 a 40.172878,40.172878 0 0 0 5.405363,20.516477"
         id="path3380"
         style="stroke-width:13.281" /><path
         class="cls-3"
         d="m 273.75009,-82.301757 a 39.62876,39.62876 0 0 1 -79.25752,0 l 0.01,0.01 0.0385,-272.034583 a 41.313715,41.313715 0 0 1 44.99601,-38.50332 70.472268,70.472268 0 0 1 54.01818,24.15228 l 11.97521,14.33179 165.55593,198.12505 v -196.99925 h -0.0186 a 39.628756,39.628756 0 1 1 79.2575,0 h -0.01 l -0.0399,272.014383 a 41.319559,41.319559 0 0 1 -44.996,38.503463 70.425651,70.425651 0 0 1 -54.01831,-24.152413 L 273.73082,-279.31068 v 197.018483 z"
         id="path3382"
         style="stroke-width:13.281" /></g></g></svg>
